<?xml version="1.0" encoding="utf-8"?>
<!-- Generator: Adobe Illustrator 22.1.0, SVG Export Plug-In . SVG Version: 6.00 Build 0)  -->
<svg version="1.1" id="Layer_1" xmlns="http://www.w3.org/2000/svg" xmlns:xlink="http://www.w3.org/1999/xlink" x="0px" y="0px"
	 viewBox="0 0 39.6 39.6" style="enable-background:new 0 0 39.6 39.6;" xml:space="preserve">
<style type="text/css">
	.st0{fill:#B76CA4;}
</style>
<g>
	<polygon class="st0" points="7.7,12.4 7.7,27.2 15.9,19.8 	"/>
	<polygon class="st0" points="30.6,11.4 9,11.4 19.8,21.3 	"/>
	<path class="st0" d="M20.3,22.9c-0.1,0.1-0.3,0.2-0.5,0.2s-0.4-0.1-0.5-0.2l-2.2-2L9,28.2h21.7l-8.1-7.4L20.3,22.9z"/>
	<path class="st0" d="M19.8,0C8.9,0,0,8.9,0,19.8s8.9,19.8,19.8,19.8c10.9,0,19.8-8.9,19.8-19.8S30.7,0,19.8,0z M33.4,29
		c0,0,0,0.1,0,0.1c0,0.1,0,0.1,0,0.2c0,0.1-0.1,0.1-0.1,0.1c0,0,0,0.1-0.1,0.1c0,0,0,0,0,0c-0.1,0.1-0.1,0.1-0.2,0.1c0,0,0,0,0,0
		c-0.1,0-0.2,0.1-0.3,0.1H7c-0.1,0-0.2,0-0.3-0.1c0,0,0,0,0,0c-0.1,0-0.2-0.1-0.2-0.1c0,0,0,0,0,0c0,0,0-0.1-0.1-0.1
		c0,0-0.1-0.1-0.1-0.1c0-0.1,0-0.1,0-0.2c0,0,0-0.1,0-0.1V10.6c0,0,0-0.1,0-0.1c0-0.1,0-0.1,0-0.2c0-0.1,0.1-0.1,0.1-0.1
		c0,0,0-0.1,0.1-0.1c0,0,0,0,0,0c0,0,0.1-0.1,0.1-0.1c0,0,0.1-0.1,0.1-0.1c0,0,0.1,0,0.1,0c0.1,0,0.1,0,0.2,0c0,0,0,0,0,0h25.7
		c0,0,0,0,0,0c0.1,0,0.1,0,0.2,0c0,0,0.1,0,0.1,0c0,0,0.1,0,0.1,0.1c0.1,0,0.1,0.1,0.1,0.1c0,0,0,0,0,0c0,0,0,0.1,0.1,0.1
		c0,0,0.1,0.1,0.1,0.1c0,0.1,0,0.1,0,0.2c0,0,0,0.1,0,0.1V29z"/>
	<polygon class="st0" points="31.9,27.2 31.9,12.4 23.7,19.8 	"/>
</g>
</svg>
