<?xml version="1.0" encoding="utf-8"?>
<!-- Generator: Adobe Illustrator 22.1.0, SVG Export Plug-In . SVG Version: 6.00 Build 0)  -->
<svg version="1.1" id="Layer_1" xmlns="http://www.w3.org/2000/svg" xmlns:xlink="http://www.w3.org/1999/xlink" x="0px" y="0px"
	 viewBox="0 0 600 600" style="enable-background:new 0 0 600 600;" xml:space="preserve">
<path d="M254.7,528.4c-4,0-7.8-1.6-10.6-4.4c-2.8-2.8-4.4-6.6-4.4-10.6V333.6h-50.5c-8.3,0-15-6.7-15-15v-75.8c0-8.3,6.7-15,15-15
	h50.5v-40.9c0-70,44.2-115.3,112.6-115.3c30.3,0,54.4,2.3,60.5,3.1c7.5,1,13,7.3,13,14.9v67.9c0,8.3-6.7,15-15,15h-40.2
	c-20.7,0-22.6,5.7-22.6,21.9v33.4h60.1c4.3,0,8.4,1.9,11.3,5.1c2.8,3.2,4.2,7.5,3.6,11.8l-9.8,75.9c-1,7.5-7.3,13.1-14.9,13.1H348
	v179.6c0,8.3-6.7,15-15,15H254.7z M333,513.4h0.1H333z M204.2,303.6h50.5c8.3,0,15,6.7,15,15v179.7H318V318.6c0-8.3,6.7-15,15-15
	h52.1l5.9-45.9h-58c-8.3,0-15-6.7-15-15v-48.4c0-12.8,0-51.9,52.6-51.9h25.2v-39.2c-10.8-0.8-26.5-1.6-43.5-1.6
	c-52.5,0-82.6,31.1-82.6,85.3v55.9c0,8.3-6.7,15-15,15h-50.5V303.6L204.2,303.6z"/>
</svg>
