<?xml version="1.0" encoding="utf-8"?>
<!-- Generator: Adobe Illustrator 22.1.0, SVG Export Plug-In . SVG Version: 6.00 Build 0)  -->
<svg version="1.1" id="Layer_1" xmlns="http://www.w3.org/2000/svg" xmlns:xlink="http://www.w3.org/1999/xlink" x="0px" y="0px"
	 viewBox="0 0 39.6 39.6" style="enable-background:new 0 0 39.6 39.6;" xml:space="preserve">
<style type="text/css">
	.st0{fill:#B76CA4;}
</style>
<g>
	<path class="st0" d="M17.8,12.3V16c0,0.6-0.4,1-1,1h-3.4V20h3.4c0.6,0,1,0.4,1,1v12l3.2,0V21c0-0.6,0.4-1,1-1h3.5l0.4-3.1H22
		c-0.6,0-1-0.4-1-1v-3.2c0-0.9,0-3.5,3.5-3.5l1.7,0V6.7c-0.7-0.1-1.8-0.1-2.9-0.1C19.8,6.6,17.8,8.6,17.8,12.3z"/>
	<path class="st0" d="M19.8,0C8.9,0,0,8.9,0,19.8s8.9,19.8,19.8,19.8s19.8-8.9,19.8-19.8S30.7,0,19.8,0z M28.2,10.3c0,0.6-0.4,1-1,1
		l-2.7,0c-1.4,0-1.5,0.4-1.5,1.5V15h4c0.3,0,0.6,0.1,0.8,0.3c0.2,0.2,0.3,0.5,0.2,0.8l-0.7,5.1c-0.1,0.5-0.5,0.9-1,0.9H23v12
		c0,0.6-0.4,1-1,1l-5.2,0c-0.3,0-0.5-0.1-0.7-0.3s-0.3-0.4-0.3-0.7V22h-3.4c-0.6,0-1-0.4-1-1V16c0-0.6,0.4-1,1-1h3.4v-2.7
		c0-4.7,2.9-7.7,7.5-7.7c2,0,3.6,0.2,4,0.2c0.5,0.1,0.9,0.5,0.9,1V10.3z"/>
</g>
</svg>
