<?xml version="1.0" encoding="utf-8"?>
<!-- Generator: Adobe Illustrator 22.1.0, SVG Export Plug-In . SVG Version: 6.00 Build 0)  -->
<svg version="1.1" id="Layer_1" xmlns="http://www.w3.org/2000/svg" xmlns:xlink="http://www.w3.org/1999/xlink" x="0px" y="0px"
	 viewBox="0 0 600 600" style="enable-background:new 0 0 600 600;" xml:space="preserve">
<g>
	<path d="M446.9,121.8H398c-17.3,0-31.3,14-31.3,31.3v49c0,17.3,14,31.3,31.3,31.3h48.9c17.2,0,31.3-14,31.3-31.3v-49
		C478.2,135.8,464.2,121.8,446.9,121.8z M448.1,202.1c0,0.7-0.6,1.3-1.3,1.3h-48.9c-0.7,0-1.3-0.6-1.3-1.3v-49
		c0-0.7,0.6-1.3,1.3-1.3h48.9c0.7,0,1.3,0.6,1.3,1.3V202.1z"/>
	<path d="M300,396.6c53.3,0,96.6-43.3,96.6-96.6s-43.3-96.6-96.6-96.6s-96.6,43.3-96.6,96.6S246.7,396.6,300,396.6z M300,233.4
		c36.7,0,66.6,29.9,66.6,66.6s-29.9,66.6-66.6,66.6s-66.6-29.9-66.6-66.6S263.3,233.4,300,233.4z"/>
	<path d="M463.2,72.9H136.8c-35.3,0-64,28.6-64,63.9v326.3c0,35.3,28.7,64,64,64h326.4c35.2,0,63.9-28.7,64-63.9V136.8
		C527.2,101.6,498.5,72.9,463.2,72.9z M497.2,463.2c0,18.8-15.3,34-34,34H136.8c-18.8,0-34-15.3-34-34V136.8
		c0-18.7,15.3-33.9,34-33.9h326.4c18.8,0,34,15.2,34,33.9V463.2z"/>
	<path d="M463.2,252.4h-36.9c-4.7,0-9.1,2.1-11.9,5.8c-2.9,3.6-3.9,8.4-2.7,12.9c2.5,9.8,3.8,19.5,3.8,28.9
		c0,63.7-51.8,115.5-115.5,115.5s-115.5-51.9-115.5-115.6c0-9.3,1.3-19,3.8-28.9c1.1-4.5,0.2-9.2-2.7-12.9
		c-2.9-3.7-7.3-5.8-11.9-5.8h-36.9c-8.3,0-15,6.7-15,15v179.6c0,17.3,14,31.3,31.3,31.3h293.8c17.2,0,31.3-14.1,31.3-31.3V267.4
		C478.2,259.1,471.5,252.4,463.2,252.4z M448.1,446.8c0,0.7-0.6,1.3-1.3,1.3H153.1c-0.7,0-1.3-0.6-1.3-1.3V282.3h3.7
		c-0.7,6-1.1,11.9-1.1,17.7c0,80.3,65.3,145.6,145.5,145.6S445.4,380.3,445.4,300c0-5.9-0.3-11.8-1.1-17.7h3.8V446.8z"/>
</g>
</svg>
