<?xml version="1.0" encoding="utf-8"?>
<!-- Generator: Adobe Illustrator 22.1.0, SVG Export Plug-In . SVG Version: 6.00 Build 0)  -->
<svg version="1.1" id="Layer_1" xmlns="http://www.w3.org/2000/svg" xmlns:xlink="http://www.w3.org/1999/xlink" x="0px" y="0px"
	 viewBox="0 0 39.6 39.6" style="enable-background:new 0 0 39.6 39.6;" xml:space="preserve">
<style type="text/css">
	.st0{fill:#B76CA4;}
</style>
<g>
	<path class="st0" d="M19.7,23.4c2,0,3.6-1.6,3.6-3.6s-1.6-3.6-3.6-3.6c-2,0-3.6,1.6-3.6,3.6S17.7,23.4,19.7,23.4z"/>
	<path class="st0" d="M24.9,11.8C24.9,11.8,24.9,11.8,24.9,11.8l-0.1,2.7c0,0,0,0.1,0.1,0.1h2.6c0,0,0.1,0,0.1-0.1v-2.6
		c0,0,0-0.1-0.1-0.1H24.9z"/>
	<path class="st0" d="M27.5,19.8c0,4.3-3.5,7.8-7.8,7.8c-4.3,0-7.8-3.5-7.8-7.8c0-0.3,0-0.6,0.1-1h-0.2v8.9c0,0,0,0.1,0.1,0.1h15.8
		c0,0,0.1,0,0.1-0.1v-8.9h-0.2C27.5,19.2,27.5,19.5,27.5,19.8z"/>
	<path class="st0" d="M28.4,9.2H10.9C9.9,9.2,9,10,9,11v17.6c0,1,0.8,1.8,1.8,1.8h17.6c1,0,1.8-0.8,1.8-1.8V11
		C30.3,10,29.5,9.2,28.4,9.2z M19.7,14.6c2.9,0,5.2,2.3,5.2,5.2c0,2.9-2.3,5.2-5.2,5.2c-2.9,0-5.2-2.3-5.2-5.2
		C14.5,16.9,16.8,14.6,19.7,14.6z M29.3,27.7c0,0.9-0.8,1.7-1.7,1.7H11.7c-0.9,0-1.7-0.8-1.7-1.7V18c0-0.4,0.4-0.8,0.8-0.8h2
		c0.2,0,0.5,0.1,0.6,0.3c0.2,0.2,0.2,0.5,0.1,0.7c-0.1,0.5-0.2,1.1-0.2,1.6c0,3.4,2.8,6.2,6.2,6.2c3.4,0,6.2-2.8,6.2-6.2
		c0-0.5-0.1-1-0.2-1.6c-0.1-0.2,0-0.5,0.1-0.7c0.2-0.2,0.4-0.3,0.6-0.3h2c0.4,0,0.8,0.4,0.8,0.8V27.7z M29.3,14.5
		c0,0.9-0.8,1.7-1.7,1.7h-2.6c-0.9,0-1.7-0.8-1.7-1.7v-2.6c0-0.9,0.8-1.7,1.7-1.7h2.6c0.9,0,1.7,0.8,1.7,1.7V14.5z"/>
	<path class="st0" d="M19.8,0C8.9,0,0,8.9,0,19.8s8.9,19.8,19.8,19.8s19.8-8.9,19.8-19.8S30.7,0,19.8,0z M31.9,28.6
		c0,1.9-1.5,3.4-3.4,3.4H10.9c-1.9,0-3.4-1.5-3.4-3.4V11c0-1.9,1.5-3.4,3.4-3.4h17.6c1.9,0,3.4,1.5,3.4,3.4V28.6z"/>
</g>
</svg>
