<?xml version="1.0" encoding="utf-8"?>
<!-- Generator: Adobe Illustrator 22.1.0, SVG Export Plug-In . SVG Version: 6.00 Build 0)  -->
<svg version="1.1" id="Layer_1" xmlns="http://www.w3.org/2000/svg" xmlns:xlink="http://www.w3.org/1999/xlink" x="0px" y="0px"
	 viewBox="0 0 600 600" style="enable-background:new 0 0 600 600;" xml:space="preserve">
<path d="M303,527.2c-1.2,0-2.3,0-3.3-0.1c-0.8,0-1.6,0.1-2.4,0.1c-31.7,0-52.6-14.8-69.5-26.7c-10.4-7.4-19.4-13.7-28.5-15.2
	c-15.3-2.5-29.2-0.5-38.2,1.2c-4.6,0.9-8.6,1.7-12.5,1.7c-10.6,0-18.7-6-21.6-15.9c-1.2-4-2-7.8-2.8-11.6c-0.2-0.8-0.5-2.1-0.8-3.5
	c-36.9-6.4-56.3-15.7-62.4-30c-1.1-2.6-1.7-5.3-1.9-7.9c-0.6-10.5,6.8-19.7,17.1-21.4c23.3-3.8,44.1-16.3,61.9-37.1
	c14.5-16.8,21.5-33,21.8-33.7c2.7-5.5,2.7-8.1,2.4-8.8c-1.7-3.9-14.3-7.9-19-9.4c-2.7-0.9-5.3-1.7-7.4-2.5
	c-29.7-11.7-31.4-28.1-29.7-36.9c3.8-19.9,30-28.8,45-21.7c6.3,2.9,10.9,4.1,14,4.5l-0.1-0.9c0-0.2,0-0.4,0-0.5
	c-2-32.5-4.6-72.9,6.7-98.2c33-74.1,103-79.8,123.7-79.8l7.9-0.1l0,0c22,0,92.1,5.8,125.1,79.9c11.3,25.4,8.8,65.8,6.7,98.3l-0.1,1
	c2.6-0.6,6.5-1.8,11.5-4.1s10-2.8,13.4-2.8c4.8,0,9.6,0.9,13.8,2.7c12.1,4.3,20.5,14.5,20.7,25.9c0.2,13.8-9.9,24.8-30.2,32.8
	c-1.9,0.8-4.4,1.6-7.1,2.4c-5.1,1.6-17.7,5.6-19.3,9.5c-0.3,0.7-0.3,3.3,1.9,7.8c0.7,1.6,27.3,62.4,84.1,71.8
	c10.3,1.7,17.6,10.8,17.1,21.2c-0.2,2.8-0.8,5.4-1.9,8c-6.1,14.3-25.5,23.6-62.4,30c-0.3,1.4-0.6,2.7-0.8,3.5
	c-0.8,3.8-1.7,7.5-2.8,11.5c-2.8,9.7-10.9,15.7-21.1,15.7c-3.8,0-7.9-0.5-13-1.5c-9.3-1.8-23.1-3.6-38.3-1.1
	c-9.2,1.5-18.1,7.9-28.5,15.2C355.7,512.4,334.7,527.2,303,527.2z M299.8,497.2c0.2,0,0.4,0,0.5,0l2.7,0.1
	c22.2,0,37.4-10.8,52.2-21.2c12.2-8.6,24.9-17.6,40.9-20.3c7-1.2,14-1.8,20.7-1.8c11.4,0,20.3,1.4,28.2,3c0.4,0.1,0.8,0.2,1.2,0.2
	c0.2-1,0.4-1.9,0.6-2.9c2.2-10,5.2-23.6,18.7-25.7c14.5-2.2,24.7-4.7,31.7-6.9c-57.4-21.1-83.2-80-84.4-82.8
	c-7.2-14.5-5.3-25.6-2.4-32.3c7-16.6,26.1-22.6,37.5-26.3c2.2-0.7,4-1.3,5.4-1.8c3.3-1.3,5.7-2.5,7.4-3.5c-0.2,0-0.5,0-0.7,0
	c-10.5,4.6-19.8,7.1-28.1,7.4c-13.3-0.5-20.3-5.7-22.7-8c-3.3-3-5.1-7.4-4.8-11.8l0.7-12.1c1.8-29.1,4.2-67-4.1-85.6
	c-25.7-57.6-80.3-62.1-96.5-62.1l-9.1,0.1c-16.1,0-70.6,4.5-96.3,62c-8.3,18.5-5.9,56-4.2,83.6c0,0.2,0,0.4,0,0.6l0.8,13.6
	c0.2,4.5-1.5,8.8-4.8,11.8c-2.6,2.4-10.1,8-23.4,8c-6.5,0-13.6-1.4-21.1-4.1c0.1,0,0.2,0.1,0.4,0.1c1.5,0.6,3.4,1.2,5.4,1.8
	c11.4,3.6,30.5,9.7,37.6,26.3c2.8,6.7,4.7,17.8-2.7,32.8l0,0c-2.6,5.9-11,23.2-26.3,41c-16.9,19.7-36.3,33.6-57.8,41.4
	c7,2.2,17.1,4.6,31.7,6.9c13.5,2.1,16.5,15.7,18.7,25.7c0.2,1,0.4,2,0.7,3c0.3-0.1,0.6-0.1,0.9-0.2c6.7-1.3,16.3-3.2,28.5-3.2
	c6.7,0,13.7,0.6,20.7,1.8c15.9,2.6,28.5,11.5,40.8,20.2c14.9,10.5,30.1,21.3,52.3,21.3C297.8,497.2,299,497.2,299.8,497.2z
	 M444.6,463.7L444.6,463.7L444.6,463.7z M470.2,458.3L470.2,458.3L470.2,458.3z"/>
</svg>
