<?xml version="1.0" encoding="utf-8"?>
<!-- Generator: Adobe Illustrator 22.1.0, SVG Export Plug-In . SVG Version: 6.00 Build 0)  -->
<svg version="1.1" id="Layer_1" xmlns="http://www.w3.org/2000/svg" xmlns:xlink="http://www.w3.org/1999/xlink" x="0px" y="0px"
	 viewBox="0 0 600 600" style="enable-background:new 0 0 600 600;" xml:space="preserve">
<g>
	<path d="M216,498.8c-53.4,0-105.4-15.2-150.3-44c-5.9-3.8-8.4-11.1-6-17.7s8.9-10.8,15.9-9.8c33.3,3.9,67.2-1.9,96.6-16.5
		c-28.9-11.8-52-35.9-61.9-66.9c-1.6-5-0.5-10.6,3.1-14.5c0.3-0.4,0.7-0.7,1.1-1.1c-23-20-37.4-49.5-37.4-81.6
		c0-5.3,2.8-10.8,7.4-13.5c1.9-1.1,4-1.9,6.2-2.2c-8.3-15.5-12.8-32.9-12.8-51.1c0-19.1,5-37.8,14.6-54.2c2.5-4.2,6.9-7,11.8-7.4
		c5-0.4,9.7,1.7,12.8,5.5c40.7,49.9,99.1,82,162.3,89.9c-0.1-1.5-0.1-3.1-0.1-4.6c0-59.4,48.4-107.8,107.8-107.8
		c26.8,0,52.7,10.1,72.4,27.9c16.4-4,32-10.4,46.6-19c5.4-3.2,12.1-2.7,17,1.2c4.9,3.9,6.8,10.4,4.9,16.3
		c-2.1,6.4-4.7,12.6-7.9,18.4c6.1-2.7,13.3-1,17.5,4.1c4.3,5.1,4.7,12.4,1,18c-12,18-26.6,33.8-43.5,47c0,1.6,0,3.1,0,4.7
		C495,356.9,390.6,498.8,216,498.8z M133.9,454.9c26.2,9.2,53.9,13.9,82.1,13.9c155.9,0,249-126.6,249-249c0-3.8-0.1-7.6-0.2-11.3
		c-0.2-5,2.1-9.9,6.2-12.8c3.1-2.3,6.2-4.6,9.2-7.1c-1.9,0.3-3.8,0.5-5.6,0.8c-7.1,0.8-13.7-3.4-16-10s0.4-14.1,6.5-17.7
		c2.4-1.4,4.7-3,6.9-4.6c-4.7,1.3-9.5,2.4-14.4,3.4c-5.1,1-10.3-0.7-13.8-4.4c-14.7-15.6-35.4-24.6-56.8-24.6
		c-42.9,0-77.8,34.9-77.8,77.8c0,6,0.7,12,2,17.7c1.1,4.6-0.1,9.4-3.1,13s-7.4,5.7-12.3,5.4c-70.4-3.5-136.8-33.9-185.8-84.1
		c-1.5,6.1-2.3,12.4-2.3,18.8c0,26.1,12.9,50.3,34.6,64.8c5.6,3.7,8,10.7,5.9,17.1c-2,6.4-8.1,10.7-14.8,10.4
		c-7.8-0.2-15.6-1.4-23.2-3.3c8.2,27.3,30.5,48.4,59,54.2c6.8,1.4,11.8,7.3,12,14.2c0.2,7-4.4,13.2-11.1,15
		c-6.9,1.9-14,3.1-21.1,3.5c14,19.9,36.9,32.5,62.2,33c6.3,0.1,11.9,4.2,13.9,10.2s0,12.7-5,16.6
		C194.7,435.6,165.3,448.9,133.9,454.9z"/>
</g>
</svg>
