<?xml version="1.0" encoding="utf-8"?>
<!-- Generator: Adobe Illustrator 22.1.0, SVG Export Plug-In . SVG Version: 6.00 Build 0)  -->
<svg version="1.1" id="Layer_1" xmlns="http://www.w3.org/2000/svg" xmlns:xlink="http://www.w3.org/1999/xlink" x="0px" y="0px"
	 viewBox="0 0 39.6 39.6" style="enable-background:new 0 0 39.6 39.6;" xml:space="preserve">
<style type="text/css">
	.st0{fill:#B76CA4;}
</style>
<g>
	<path class="st0" d="M29.4,14c-0.1-0.4,0-0.8,0.4-1c0.1-0.1,0.3-0.2,0.4-0.3c-0.3,0.1-0.5,0.1-0.8,0.2c-0.3,0.1-0.6,0-0.8-0.2
		c-0.8-0.9-1.9-1.3-3.1-1.3c-2.3,0-4.2,1.9-4.2,4.2c0,0.3,0,0.7,0.1,1c0.1,0.2,0,0.5-0.2,0.7c-0.2,0.2-0.4,0.3-0.7,0.3
		c-3.8-0.2-7.5-1.8-10.1-4.6c-0.1,0.3-0.1,0.7-0.1,1c0,1.4,0.7,2.7,1.9,3.5c0.3,0.2,0.4,0.6,0.3,0.9c-0.1,0.3-0.4,0.6-0.8,0.6
		c-0.4,0-0.9-0.1-1.3-0.2c0.4,1.5,1.7,2.6,3.2,3c0.4,0.1,0.6,0.4,0.7,0.8c0,0.4-0.2,0.7-0.6,0.8c-0.4,0.1-0.8,0.2-1.2,0.2
		c0.8,1.1,2,1.8,3.4,1.8c0.3,0,0.7,0.2,0.8,0.6c0.1,0.3,0,0.7-0.3,0.9c-1.4,1.1-3,1.8-4.7,2.1c1.4,0.5,2.9,0.8,4.5,0.8
		c8.5,0,13.6-6.9,13.6-13.6c0-0.2,0-0.4,0-0.6c0-0.3,0.1-0.5,0.3-0.7c0.2-0.1,0.3-0.3,0.5-0.4c-0.1,0-0.2,0-0.3,0
		C29.9,14.6,29.5,14.4,29.4,14z"/>
	<path class="st0" d="M19.8,0C8.9,0,0,8.9,0,19.8s8.9,19.8,19.8,19.8s19.8-8.9,19.8-19.8S30.7,0,19.8,0z M33.8,13.4
		c-0.7,1-1.5,1.8-2.4,2.6c0,0.1,0,0.2,0,0.3c0,7.5-5.7,15.2-15.2,15.2c-2.9,0-5.7-0.8-8.2-2.4c-0.3-0.2-0.5-0.6-0.3-1
		c0.1-0.4,0.5-0.6,0.9-0.5c1.8,0.2,3.7-0.1,5.3-0.9c-1.6-0.6-2.8-2-3.4-3.6c-0.1-0.3,0-0.6,0.2-0.8c0,0,0,0,0.1-0.1
		c-1.3-1.1-2-2.7-2-4.4c0-0.3,0.2-0.6,0.4-0.7c0.1-0.1,0.2-0.1,0.3-0.1C8.9,16,8.6,15,8.6,14c0-1,0.3-2.1,0.8-3
		c0.1-0.2,0.4-0.4,0.6-0.4c0.3,0,0.5,0.1,0.7,0.3c2.2,2.7,5.4,4.5,8.8,4.9c0-0.1,0-0.2,0-0.3c0-3.2,2.6-5.9,5.9-5.9
		c1.5,0,2.9,0.5,3.9,1.5c0.9-0.2,1.7-0.6,2.5-1c0.3-0.2,0.7-0.1,0.9,0.1c0.3,0.2,0.4,0.6,0.3,0.9c-0.1,0.3-0.3,0.7-0.4,1
		c0.3-0.1,0.7-0.1,1,0.2C33.9,12.7,34,13.1,33.8,13.4z"/>
</g>
</svg>
